# xmcd CD database file
#
# Track frame offsets:
#	150
#	29232
#	58048
#	84924
#	112944
#	138040
#	168971
#	187059
#	209757
#	220331
#
# Disc length: 3026 seconds
#
# Revision: 0
# Processed by: cddbd v1.4PL0 Copyright (c) Steve Scherf et al.
# Submitted via: CDex 1.50
#
DISCID=910bd00a
DTITLE=Tony Monaco Trio with special guests Joey DeFrancesco Trio - A New Generation: Paesanos on the New B3
DYEAR=2003
DGENRE=Jazz
TTITLE0=Pasta Faggioli
TTITLE1=Homily
TTITLE2=Katarins's Prayer
TTITLE3=Flat Tire
TTITLE4=Mona Lisa
TTITLE5=Mozzarella
TTITLE6=Aglio e Olio
TTITLE7=Oh Marie
TTITLE8=Waltz of the Angels
TTITLE9=Interview with Pete Fallico's "Doodlin Lounge"
EXTD=YEAR: 2003
EXTT0=
EXTT1=
EXTT2=
EXTT3=
EXTT4=
EXTT5=
EXTT6=
EXTT7=
EXTT8=
EXTT9=
PLAYORDER=
